<?xml version="1.0" standalone="no"?>
<!DOCTYPE svg PUBLIC "-//W3C//DTD SVG 20010904//EN"
 "http://www.w3.org/TR/2001/REC-SVG-20010904/DTD/svg10.dtd">
<svg version="1.0" xmlns="http://www.w3.org/2000/svg"
 width="175.000000pt" height="175.000000pt" viewBox="0 0 175.000000 175.000000"
 preserveAspectRatio="xMidYMid meet">
<metadata>
Created by potrace 1.11, written by Peter Selinger 2001-2013
</metadata>
<g transform="translate(0.000000,175.000000) scale(0.100000,-0.100000)"
fill="#000000" stroke="none">
<path d="M1034 1283 c-10 -39 7 -58 57 -61 l44 -3 21 -112 c12 -62 18 -114 14
-117 -29 -20 -40 -102 -17 -130 23 -30 62 -50 95 -50 42 0 92 46 92 84 0 14 5
26 10 26 6 0 10 -10 10 -22 1 -43 54 -88 103 -88 25 0 25 0 31 -127 4 -71 9
-156 12 -191 l6 -62 39 0 c23 0 41 5 43 13 3 6 7 96 10 200 l6 187 -40 0 c-40
0 -41 0 -26 22 24 34 21 100 -7 130 -13 14 -30 28 -38 31 -11 5 -10 8 5 18 27
17 88 156 84 193 l-3 31 -176 3 c-176 2 -177 3 -193 27 -15 23 -22 25 -96 25
-78 0 -80 -1 -86 -27z m124 -20 c-15 -2 -42 -2 -60 0 -18 2 -6 4 27 4 33 0 48
-2 33 -4z m392 -47 c0 -3 -15 -39 -34 -80 l-35 -76 -135 0 c-120 0 -135 2
-140 18 -4 15 -26 130 -26 139 0 2 83 3 185 3 102 0 185 -2 185 -4z m-307
-216 c5 -18 14 -20 109 -20 104 0 142 -10 161 -41 27 -44 -35 -105 -82 -80
-24 13 -36 50 -26 80 6 20 2 21 -54 21 l-60 0 5 -32 c7 -44 -14 -71 -55 -71
-55 0 -81 62 -41 98 11 10 20 29 20 42 0 28 16 31 23 3z"/>
<path d="M1210 1180 c0 -16 7 -20 30 -20 23 0 30 4 30 20 0 16 -7 20 -30 20
-23 0 -30 -4 -30 -20z"/>
<path d="M1295 1190 c-4 -7 -3 -16 3 -22 14 -14 57 -6 57 12 0 18 -50 26 -60
10z"/>
<path d="M1376 1192 c-2 -4 -1 -14 3 -21 12 -18 55 -10 59 12 3 13 -3 17 -27
17 -16 0 -32 -4 -35 -8z"/>
<path d="M1460 1180 c0 -16 7 -20 30 -20 23 0 30 4 30 20 0 16 -7 20 -30 20
-23 0 -30 -4 -30 -20z"/>
<path d="M1254 1125 c-4 -9 -2 -21 4 -27 16 -16 47 -5 47 17 0 26 -42 34 -51
10z"/>
<path d="M1337 1126 c-3 -8 0 -20 8 -26 20 -17 50 -8 50 15 0 25 -49 34 -58
11z"/>
<path d="M1424 1125 c-4 -9 -2 -21 4 -27 16 -16 47 -5 47 17 0 26 -42 34 -51
10z"/>
<path d="M1199 939 c-17 -33 3 -69 39 -69 33 0 52 16 52 45 0 29 -19 45 -52
45 -18 0 -31 -7 -39 -21z"/>
<path d="M1422 948 c-7 -7 -12 -21 -12 -33 0 -29 19 -45 52 -45 36 0 56 36 39
69 -13 23 -59 29 -79 9z"/>
<path d="M224 1236 c-40 -18 -64 -52 -64 -91 1 -40 17 -67 68 -110 48 -42 56
-75 17 -75 -19 0 -26 7 -32 30 -4 17 -11 30 -15 30 -5 0 -16 0 -25 0 -38 0
-46 -14 -30 -52 20 -48 52 -68 108 -68 36 0 55 6 77 25 59 50 48 125 -27 184
-30 24 -41 40 -39 55 4 26 20 25 33 -3 10 -22 48 -28 74 -12 23 15 -6 71 -45
87 -41 17 -60 17 -100 0z"/>
<path d="M394 1205 c-3 -20 -3 -92 1 -160 7 -122 8 -125 30 -125 48 0 55 9 55
67 0 55 12 93 30 93 13 0 12 -33 -3 -107 -15 -69 -12 -73 43 -73 25 0 31 5 40
38 21 76 24 149 6 176 -20 31 -56 42 -86 26 -22 -12 -23 -12 -16 44 l7 56 -50
0 c-49 0 -50 0 -57 -35z"/>
<path d="M893 1163 c-14 -5 -18 -194 -7 -290 l7 -53 39 0 40 0 -4 50 c-3 45
-1 50 18 50 30 0 74 37 90 76 21 51 18 130 -6 154 -22 22 -60 26 -78 8 -9 -9
-12 -9 -12 0 0 12 -62 16 -87 5z m104 -119 c-5 -45 -20 -74 -33 -61 -3 3 -3
29 1 56 5 36 11 51 22 51 13 0 15 -9 10 -46z"/>
<path d="M681 1134 c-56 -47 -66 -150 -19 -194 34 -32 102 -27 138 8 55 55 64
164 17 197 -35 24 -100 19 -136 -11z m75 -59 c7 -30 -3 -95 -15 -95 -12 0 -21
26 -21 60 0 58 24 81 36 35z"/>
<path d="M174 761 c-4 -17 -14 -31 -25 -34 -23 -6 -26 -52 -4 -61 11 -4 15
-21 15 -61 0 -64 20 -119 48 -134 12 -6 39 -11 61 -11 31 0 44 6 60 26 26 33
27 60 2 74 -31 16 -51 12 -51 -10 0 -11 -4 -20 -10 -20 -11 0 -13 71 -4 108 5
17 14 22 39 22 32 0 45 13 45 46 0 9 -12 14 -36 14 -33 0 -35 2 -32 27 3 29
-16 40 -75 42 -23 1 -29 -4 -33 -28z"/>
<path d="M661 733 l-24 -5 7 -111 c4 -62 9 -127 13 -145 5 -32 7 -33 47 -30
l41 3 3 89 c3 85 12 116 35 116 6 0 7 -31 3 -89 l-7 -90 46 -6 c25 -4 48 -6
50 -3 2 2 9 42 14 88 11 86 5 136 -20 166 -13 16 -62 18 -89 4 -13 -7 -19 -6
-24 5 -5 15 -42 18 -95 8z"/>
<path d="M951 733 l-24 -5 7 -111 c4 -62 9 -127 13 -145 5 -32 7 -33 47 -30
l41 3 3 89 c3 85 12 116 35 116 6 0 7 -31 3 -89 l-7 -90 46 -6 c25 -4 48 -6
50 -3 2 2 9 42 14 88 11 86 5 136 -20 166 -13 16 -62 18 -89 4 -13 -7 -19 -6
-24 5 -5 15 -42 18 -95 8z"/>
<path d="M1286 710 c-72 -63 -88 -189 -30 -238 24 -21 35 -24 86 -20 50 4 64
9 90 35 l31 31 -34 21 c-43 26 -43 26 -57 -4 -14 -31 -38 -32 -46 -2 -11 44
-8 47 47 47 28 0 58 4 64 8 7 5 16 29 19 54 6 41 3 49 -19 72 -39 39 -104 37
-151 -4z m74 -50 c0 -20 -5 -30 -15 -30 -18 0 -18 1 -5 34 13 34 20 33 20 -4z"/>
<path d="M381 693 c-25 -88 -6 -199 37 -222 39 -21 108 -13 141 15 37 31 51
77 51 167 l0 67 -32 0 c-71 0 -77 -6 -71 -65 6 -59 -3 -125 -17 -125 -6 0 -10
43 -10 100 l0 100 -45 0 c-42 0 -44 -1 -54 -37z"/>
</g>
</svg>
